<svg width="28" height="28" viewBox="0 0 28 28" fill="none" xmlns="http://www.w3.org/2000/svg">
<path d="M14.0233 3.39502C10.1616 3.39502 7.02331 6.53335 7.02331 10.395V13.7667C7.02331 14.4784 6.71998 15.5634 6.35831 16.17L5.01665 18.3984C4.18831 19.775 4.75998 21.3034 6.27665 21.8167C11.305 23.4967 16.73 23.4967 21.7583 21.8167C23.17 21.35 23.7883 19.6817 23.0183 18.3984L21.6766 16.17C21.3266 15.5634 21.0233 14.4784 21.0233 13.7667V10.395C21.0233 6.54502 17.8733 3.39502 14.0233 3.39502Z" stroke="#C9C9C9" stroke-miterlimit="10" stroke-linecap="round"/>
<path d="M16.1817 3.73343C14.7708 3.33162 13.2758 3.33162 11.865 3.73343C12.2033 2.87009 13.0433 2.26343 14.0233 2.26343C15.0033 2.26343 15.8433 2.87009 16.1817 3.73343Z" stroke="#C9C9C9" stroke-miterlimit="10" stroke-linecap="round" stroke-linejoin="round"/>
<path d="M17.5233 22.2366C17.5233 24.1616 15.9483 25.7366 14.0233 25.7366C13.0666 25.7366 12.18 25.3399 11.55 24.7099C10.8945 24.0534 10.5254 23.1643 10.5233 22.2366" stroke="#C9C9C9" stroke-miterlimit="10"/>
<circle cx="21" cy="6" r="4.5" fill="#FF1700" stroke="#1B1B1D"/>
</svg>
