<svg width="893" height="276" viewBox="0 0 893 276" fill="none" xmlns="http://www.w3.org/2000/svg">
<g style="mix-blend-mode:difference">
<rect width="893" height="276" rx="30" fill="url(#paint0_linear_91_100)"/>
<path d="M48.232 82L47.154 79.228H42.758L41.708 82H40.238L44.186 72.074H45.768L49.716 82H48.232ZM44.942 73.502L43.248 77.954H46.664L44.942 73.502ZM52.6831 82H51.2831V72.074H52.6831V82ZM58.6503 78.556H54.8563V77.408H58.6503V78.556ZM63.6095 76.274C62.5455 76.274 61.5655 77.058 61.5655 78.626C61.5655 80.166 62.5315 80.992 63.6235 80.992C64.8835 80.992 65.3455 80.138 65.4995 79.606L66.6615 80.11C66.3395 81.076 65.3735 82.21 63.6235 82.21C61.6635 82.21 60.2215 80.67 60.2215 78.626C60.2215 76.526 61.6915 75.056 63.6095 75.056C65.4015 75.056 66.3255 76.176 66.6055 77.198L65.4155 77.702C65.2475 77.044 64.7575 76.274 63.6095 76.274ZM72.6543 81.188C72.2903 81.888 71.4503 82.21 70.6663 82.21C69.0983 82.21 68.1463 81.034 68.1463 79.508V75.266H69.4623V79.312C69.4623 80.236 69.8823 81.048 70.9883 81.048C72.0523 81.048 72.5843 80.348 72.5843 79.326V75.266H73.9003V80.754C73.9003 81.286 73.9423 81.762 73.9703 82H72.7103C72.6823 81.846 72.6543 81.468 72.6543 81.188ZM79.7747 75.196V76.596C79.5787 76.568 79.3827 76.554 79.2007 76.554C78.0947 76.554 77.3527 77.142 77.3527 78.626V82H76.0367V75.266H77.3247V76.442C77.8147 75.406 78.6547 75.154 79.3407 75.154C79.5227 75.154 79.7047 75.182 79.7747 75.196ZM80.6746 80.194C80.6746 78.99 81.5566 78.318 82.7186 78.15L84.5386 77.884C84.9446 77.828 85.0566 77.618 85.0566 77.38C85.0566 76.722 84.6226 76.176 83.6006 76.176C82.6766 76.176 82.1586 76.75 82.0746 77.534L80.8146 77.24C80.9546 75.952 82.1166 75.056 83.5726 75.056C85.5886 75.056 86.3726 76.204 86.3726 77.52V80.894C86.3726 81.482 86.4286 81.832 86.4566 82H85.1686C85.1406 81.832 85.0986 81.58 85.0986 81.09C84.8046 81.566 84.1326 82.21 82.9286 82.21C81.5566 82.21 80.6746 81.258 80.6746 80.194ZM83.1106 81.104C84.1886 81.104 85.0566 80.586 85.0566 79.116V78.808L82.9986 79.116C82.4386 79.2 82.0186 79.522 82.0186 80.124C82.0186 80.628 82.4386 81.104 83.1106 81.104ZM90.23 73.138V75.266H91.686V76.456H90.23V79.956C90.23 80.572 90.482 80.88 91.168 80.88C91.336 80.88 91.574 80.852 91.686 80.824V81.944C91.574 81.986 91.238 82.07 90.79 82.07C89.642 82.07 88.914 81.37 88.914 80.152V76.456H87.626V75.266H87.99C88.718 75.266 89.026 74.818 89.026 74.23V73.138H90.23ZM94.1469 77.94H97.8289C97.8009 76.974 97.1709 76.218 95.9809 76.218C94.8749 76.218 94.2029 77.072 94.1469 77.94ZM98.0249 79.69L99.1589 80.082C98.7809 81.272 97.7029 82.21 96.1349 82.21C94.3289 82.21 92.7469 80.894 92.7469 78.612C92.7469 76.498 94.2729 75.056 95.9669 75.056C98.0389 75.056 99.2009 76.484 99.2009 78.584C99.2009 78.752 99.1869 78.92 99.1729 79.004H94.1049C94.1329 80.208 95.0009 81.048 96.1349 81.048C97.2269 81.048 97.7729 80.446 98.0249 79.69ZM101.747 78.612C101.747 79.998 102.461 81.02 103.721 81.02C104.925 81.02 105.667 79.97 105.667 78.584C105.667 77.198 104.939 76.246 103.735 76.246C102.531 76.246 101.747 77.226 101.747 78.612ZM105.681 81.09V80.978C105.359 81.622 104.645 82.182 103.595 82.182C101.621 82.182 100.403 80.614 100.403 78.612C100.403 76.708 101.691 75.084 103.595 75.084C104.785 75.084 105.429 75.672 105.653 76.218V71.864H106.955V80.754C106.955 81.398 107.011 81.888 107.025 82H105.751C105.723 81.846 105.681 81.496 105.681 81.09ZM113.925 82H112.623V71.864H113.925V76.218C114.247 75.616 115.031 75.07 116.151 75.07C118.195 75.07 119.245 76.638 119.245 78.598C119.245 80.6 118.111 82.182 116.109 82.182C115.115 82.182 114.345 81.748 113.925 81.02V82ZM117.901 78.598C117.901 77.142 117.131 76.232 115.913 76.232C114.751 76.232 113.911 77.142 113.911 78.598C113.911 80.054 114.751 81.006 115.913 81.006C117.117 81.006 117.901 80.054 117.901 78.598ZM123.931 81.034C125.051 81.034 126.031 80.194 126.031 78.626C126.031 77.072 125.051 76.232 123.931 76.232C122.811 76.232 121.831 77.072 121.831 78.626C121.831 80.194 122.811 81.034 123.931 81.034ZM123.931 75.056C125.947 75.056 127.375 76.582 127.375 78.626C127.375 80.684 125.947 82.21 123.931 82.21C121.915 82.21 120.487 80.684 120.487 78.626C120.487 76.582 121.915 75.056 123.931 75.056ZM132.052 81.034C133.172 81.034 134.152 80.194 134.152 78.626C134.152 77.072 133.172 76.232 132.052 76.232C130.932 76.232 129.952 77.072 129.952 78.626C129.952 80.194 130.932 81.034 132.052 81.034ZM132.052 75.056C134.068 75.056 135.496 76.582 135.496 78.626C135.496 80.684 134.068 82.21 132.052 82.21C130.036 82.21 128.608 80.684 128.608 78.626C128.608 76.582 130.036 75.056 132.052 75.056ZM143.211 75.266L140.341 78.108L143.267 82H141.615L139.417 79.032L138.479 79.97V82H137.177V71.864H138.479V78.248L141.391 75.266H143.211ZM147.542 80.25L148.732 79.83C148.816 80.53 149.348 81.09 150.3 81.09C151.042 81.09 151.448 80.67 151.448 80.194C151.448 79.774 151.14 79.452 150.58 79.326L149.432 79.074C148.382 78.85 147.752 78.136 147.752 77.184C147.752 76.036 148.83 75.056 150.146 75.056C151.994 75.056 152.568 76.26 152.708 76.862L151.546 77.296C151.49 76.946 151.21 76.176 150.146 76.176C149.474 76.176 149.026 76.61 149.026 77.072C149.026 77.478 149.278 77.772 149.796 77.884L150.888 78.122C152.106 78.388 152.75 79.13 152.75 80.124C152.75 81.076 151.952 82.21 150.286 82.21C148.438 82.21 147.654 81.02 147.542 80.25ZM158.883 81.188C158.519 81.888 157.679 82.21 156.895 82.21C155.327 82.21 154.375 81.034 154.375 79.508V75.266H155.691V79.312C155.691 80.236 156.111 81.048 157.217 81.048C158.281 81.048 158.813 80.348 158.813 79.326V75.266H160.129V80.754C160.129 81.286 160.171 81.762 160.199 82H158.939C158.911 81.846 158.883 81.468 158.883 81.188ZM163.567 82H162.265V75.266H163.525V76.162C163.945 75.42 164.785 75.07 165.569 75.07C166.409 75.07 167.221 75.476 167.585 76.344C168.117 75.378 168.985 75.07 169.839 75.07C171.015 75.07 172.163 75.868 172.163 77.632V82H170.861V77.772C170.861 76.89 170.427 76.232 169.433 76.232C168.509 76.232 167.879 76.96 167.879 77.926V82H166.563V77.772C166.563 76.904 166.143 76.232 165.135 76.232C164.197 76.232 163.567 76.932 163.567 77.94V82ZM175.516 82H174.214V75.266H175.474V76.162C175.894 75.42 176.734 75.07 177.518 75.07C178.358 75.07 179.17 75.476 179.534 76.344C180.066 75.378 180.934 75.07 181.788 75.07C182.964 75.07 184.112 75.868 184.112 77.632V82H182.81V77.772C182.81 76.89 182.376 76.232 181.382 76.232C180.458 76.232 179.828 76.96 179.828 77.926V82H178.512V77.772C178.512 76.904 178.092 76.232 177.084 76.232C176.146 76.232 175.516 76.932 175.516 77.94V82ZM185.716 80.194C185.716 78.99 186.598 78.318 187.76 78.15L189.58 77.884C189.986 77.828 190.098 77.618 190.098 77.38C190.098 76.722 189.664 76.176 188.642 76.176C187.718 76.176 187.2 76.75 187.116 77.534L185.856 77.24C185.996 75.952 187.158 75.056 188.614 75.056C190.63 75.056 191.414 76.204 191.414 77.52V80.894C191.414 81.482 191.47 81.832 191.498 82H190.21C190.182 81.832 190.14 81.58 190.14 81.09C189.846 81.566 189.174 82.21 187.97 82.21C186.598 82.21 185.716 81.258 185.716 80.194ZM188.152 81.104C189.23 81.104 190.098 80.586 190.098 79.116V78.808L188.04 79.116C187.48 79.2 187.06 79.522 187.06 80.124C187.06 80.628 187.48 81.104 188.152 81.104ZM197.23 75.196V76.596C197.034 76.568 196.838 76.554 196.656 76.554C195.55 76.554 194.808 77.142 194.808 78.626V82H193.492V75.266H194.78V76.442C195.27 75.406 196.11 75.154 196.796 75.154C196.978 75.154 197.16 75.182 197.23 75.196ZM199.88 82H198.578V75.266H199.88V82ZM198.284 72.718C198.284 72.186 198.704 71.766 199.222 71.766C199.754 71.766 200.174 72.186 200.174 72.718C200.174 73.236 199.754 73.656 199.222 73.656C198.704 73.656 198.284 73.236 198.284 72.718ZM202.961 77.94H206.643C206.615 76.974 205.985 76.218 204.795 76.218C203.689 76.218 203.017 77.072 202.961 77.94ZM206.839 79.69L207.973 80.082C207.595 81.272 206.517 82.21 204.949 82.21C203.143 82.21 201.561 80.894 201.561 78.612C201.561 76.498 203.087 75.056 204.781 75.056C206.853 75.056 208.015 76.484 208.015 78.584C208.015 78.752 208.001 78.92 207.987 79.004H202.919C202.947 80.208 203.815 81.048 204.949 81.048C206.041 81.048 206.587 80.446 206.839 79.69ZM209.134 80.25L210.324 79.83C210.408 80.53 210.94 81.09 211.892 81.09C212.634 81.09 213.04 80.67 213.04 80.194C213.04 79.774 212.732 79.452 212.172 79.326L211.024 79.074C209.974 78.85 209.344 78.136 209.344 77.184C209.344 76.036 210.422 75.056 211.738 75.056C213.586 75.056 214.16 76.26 214.3 76.862L213.138 77.296C213.082 76.946 212.802 76.176 211.738 76.176C211.066 76.176 210.618 76.61 210.618 77.072C210.618 77.478 210.87 77.772 211.388 77.884L212.48 78.122C213.698 78.388 214.342 79.13 214.342 80.124C214.342 81.076 213.544 82.21 211.878 82.21C210.03 82.21 209.246 81.02 209.134 80.25ZM219.116 80.194C219.116 78.99 219.998 78.318 221.16 78.15L222.98 77.884C223.386 77.828 223.498 77.618 223.498 77.38C223.498 76.722 223.064 76.176 222.042 76.176C221.118 76.176 220.6 76.75 220.516 77.534L219.256 77.24C219.396 75.952 220.558 75.056 222.014 75.056C224.03 75.056 224.814 76.204 224.814 77.52V80.894C224.814 81.482 224.87 81.832 224.898 82H223.61C223.582 81.832 223.54 81.58 223.54 81.09C223.246 81.566 222.574 82.21 221.37 82.21C219.998 82.21 219.116 81.258 219.116 80.194ZM221.552 81.104C222.63 81.104 223.498 80.586 223.498 79.116V78.808L221.44 79.116C220.88 79.2 220.46 79.522 220.46 80.124C220.46 80.628 220.88 81.104 221.552 81.104ZM228.208 78.108V82H226.892V75.266H228.18V76.232C228.67 75.392 229.468 75.07 230.252 75.07C231.862 75.07 232.66 76.232 232.66 77.73V82H231.344V77.954C231.344 77.016 230.952 76.26 229.776 76.26C228.74 76.26 228.208 77.086 228.208 78.108ZM235.608 78.612C235.608 79.998 236.322 81.02 237.582 81.02C238.786 81.02 239.528 79.97 239.528 78.584C239.528 77.198 238.8 76.246 237.596 76.246C236.392 76.246 235.608 77.226 235.608 78.612ZM239.542 81.09V80.978C239.22 81.622 238.506 82.182 237.456 82.182C235.482 82.182 234.264 80.614 234.264 78.612C234.264 76.708 235.552 75.084 237.456 75.084C238.646 75.084 239.29 75.672 239.514 76.218V71.864H240.816V80.754C240.816 81.398 240.872 81.888 240.886 82H239.612C239.584 81.846 239.542 81.496 239.542 81.09ZM249.861 76.456H248.237V82H246.879V76.456H245.633V75.266H246.879V74.132C246.879 72.634 247.873 71.822 249.091 71.822C249.539 71.822 249.819 71.92 249.875 71.962V73.138C249.805 73.11 249.637 73.054 249.301 73.054C248.839 73.054 248.237 73.278 248.237 74.202V75.266H249.861V76.456ZM254.087 81.034C255.207 81.034 256.187 80.194 256.187 78.626C256.187 77.072 255.207 76.232 254.087 76.232C252.967 76.232 251.987 77.072 251.987 78.626C251.987 80.194 252.967 81.034 254.087 81.034ZM254.087 75.056C256.103 75.056 257.531 76.582 257.531 78.626C257.531 80.684 256.103 82.21 254.087 82.21C252.071 82.21 250.643 80.684 250.643 78.626C250.643 76.582 252.071 75.056 254.087 75.056ZM262.152 76.274C261.088 76.274 260.108 77.058 260.108 78.626C260.108 80.166 261.074 80.992 262.166 80.992C263.426 80.992 263.888 80.138 264.042 79.606L265.204 80.11C264.882 81.076 263.916 82.21 262.166 82.21C260.206 82.21 258.764 80.67 258.764 78.626C258.764 76.526 260.234 75.056 262.152 75.056C263.944 75.056 264.868 76.176 265.148 77.198L263.958 77.702C263.79 77.044 263.3 76.274 262.152 76.274ZM271.197 81.188C270.833 81.888 269.993 82.21 269.209 82.21C267.641 82.21 266.689 81.034 266.689 79.508V75.266H268.005V79.312C268.005 80.236 268.425 81.048 269.531 81.048C270.595 81.048 271.127 80.348 271.127 79.326V75.266H272.443V80.754C272.443 81.286 272.485 81.762 272.513 82H271.253C271.225 81.846 271.197 81.468 271.197 81.188ZM274.048 80.25L275.238 79.83C275.322 80.53 275.854 81.09 276.806 81.09C277.548 81.09 277.954 80.67 277.954 80.194C277.954 79.774 277.646 79.452 277.086 79.326L275.938 79.074C274.888 78.85 274.258 78.136 274.258 77.184C274.258 76.036 275.336 75.056 276.652 75.056C278.5 75.056 279.074 76.26 279.214 76.862L278.052 77.296C277.996 76.946 277.716 76.176 276.652 76.176C275.98 76.176 275.532 76.61 275.532 77.072C275.532 77.478 275.784 77.772 276.302 77.884L277.394 78.122C278.612 78.388 279.256 79.13 279.256 80.124C279.256 81.076 278.458 82.21 276.792 82.21C274.944 82.21 274.16 81.02 274.048 80.25ZM285.78 82H284.478V75.266H285.738V76.162C286.158 75.42 286.998 75.07 287.782 75.07C288.622 75.07 289.434 75.476 289.798 76.344C290.33 75.378 291.198 75.07 292.052 75.07C293.228 75.07 294.376 75.868 294.376 77.632V82H293.074V77.772C293.074 76.89 292.64 76.232 291.646 76.232C290.722 76.232 290.092 76.96 290.092 77.926V82H288.776V77.772C288.776 76.904 288.356 76.232 287.348 76.232C286.41 76.232 285.78 76.932 285.78 77.94V82ZM300.865 81.188C300.501 81.888 299.661 82.21 298.877 82.21C297.309 82.21 296.357 81.034 296.357 79.508V75.266H297.673V79.312C297.673 80.236 298.093 81.048 299.199 81.048C300.263 81.048 300.795 80.348 300.795 79.326V75.266H302.111V80.754C302.111 81.286 302.153 81.762 302.181 82H300.921C300.893 81.846 300.865 81.468 300.865 81.188ZM303.716 80.25L304.906 79.83C304.99 80.53 305.522 81.09 306.474 81.09C307.216 81.09 307.622 80.67 307.622 80.194C307.622 79.774 307.314 79.452 306.754 79.326L305.606 79.074C304.556 78.85 303.926 78.136 303.926 77.184C303.926 76.036 305.004 75.056 306.32 75.056C308.168 75.056 308.742 76.26 308.882 76.862L307.72 77.296C307.664 76.946 307.384 76.176 306.32 76.176C305.648 76.176 305.2 76.61 305.2 77.072C305.2 77.478 305.452 77.772 305.97 77.884L307.062 78.122C308.28 78.388 308.924 79.13 308.924 80.124C308.924 81.076 308.126 82.21 306.46 82.21C304.612 82.21 303.828 81.02 303.716 80.25ZM311.921 82H310.619V75.266H311.921V82ZM310.325 72.718C310.325 72.186 310.745 71.766 311.263 71.766C311.795 71.766 312.215 72.186 312.215 72.718C312.215 73.236 311.795 73.656 311.263 73.656C310.745 73.656 310.325 73.236 310.325 72.718ZM316.99 76.274C315.926 76.274 314.946 77.058 314.946 78.626C314.946 80.166 315.912 80.992 317.004 80.992C318.264 80.992 318.726 80.138 318.88 79.606L320.042 80.11C319.72 81.076 318.754 82.21 317.004 82.21C315.044 82.21 313.602 80.67 313.602 78.626C313.602 76.526 315.072 75.056 316.99 75.056C318.782 75.056 319.706 76.176 319.986 77.198L318.796 77.702C318.628 77.044 318.138 76.274 316.99 76.274Z" fill="#F8F8F8"/>
<path d="M53.856 116L49.408 107.264H47.104V116H42.656V93.312H51.52C55.936 93.312 58.752 96.352 58.752 100.288C58.752 103.456 56.896 105.856 53.92 106.72L58.784 116H53.856ZM47.104 103.456H50.688C52.928 103.456 54.24 102.176 54.24 100.32C54.24 98.4 52.928 97.152 50.688 97.152H47.104V103.456ZM64.9103 106.336H71.9503C71.8863 104.768 70.8623 103.232 68.4303 103.232C66.2223 103.232 65.0063 104.896 64.9103 106.336ZM72.3663 110.432L75.9183 111.488C75.1183 114.208 72.6223 116.48 68.7503 116.48C64.4303 116.48 60.6223 113.376 60.6223 108.064C60.6223 103.04 64.3343 99.776 68.3663 99.776C73.2303 99.776 76.1423 102.88 76.1423 107.936C76.1423 108.544 76.0783 109.184 76.0783 109.248H64.8143C64.9103 111.328 66.6703 112.832 68.7823 112.832C70.7663 112.832 71.8543 111.84 72.3663 110.432ZM78.623 111.712C78.623 108.896 80.703 107.328 83.327 106.944L87.199 106.368C88.095 106.24 88.383 105.792 88.383 105.248C88.383 104.128 87.519 103.2 85.727 103.2C83.871 103.2 82.847 104.384 82.719 105.76L78.943 104.96C79.199 102.496 81.471 99.776 85.695 99.776C90.687 99.776 92.543 102.592 92.543 105.76V113.504C92.543 114.336 92.639 115.456 92.735 116H88.831C88.735 115.584 88.671 114.72 88.671 114.112C87.871 115.36 86.367 116.448 84.031 116.448C80.671 116.448 78.623 114.176 78.623 111.712ZM84.927 113.28C86.719 113.28 88.383 112.416 88.383 109.632V108.928L84.831 109.472C83.743 109.632 82.879 110.24 82.879 111.456C82.879 112.384 83.551 113.28 84.927 113.28ZM112.002 92.832V113.152C112.002 114.208 112.066 115.36 112.13 116H108.066C108.002 115.68 107.906 114.912 107.906 114.176C107.202 115.424 105.602 116.384 103.49 116.384C99.0098 116.384 95.8098 112.864 95.8098 108.096C95.8098 103.488 98.9138 99.872 103.362 99.872C106.082 99.872 107.362 100.992 107.81 101.824V92.832H112.002ZM100.098 108.096C100.098 110.912 101.762 112.576 104.002 112.576C106.178 112.576 107.874 110.912 107.874 108.064C107.874 105.248 106.178 103.68 104.002 103.68C101.826 103.68 100.098 105.28 100.098 108.096ZM139.701 98.72L135.733 99.936C135.509 98.688 134.485 96.736 131.605 96.736C129.461 96.736 128.053 98.112 128.053 99.616C128.053 100.864 128.853 101.856 130.517 102.176L133.685 102.784C137.813 103.584 140.021 106.272 140.021 109.472C140.021 112.96 137.109 116.48 131.829 116.48C125.813 116.48 123.157 112.608 122.805 109.376L126.901 108.288C127.093 110.528 128.661 112.544 131.861 112.544C134.229 112.544 135.541 111.36 135.541 109.76C135.541 108.448 134.549 107.424 132.789 107.072L129.621 106.432C126.005 105.696 123.669 103.36 123.669 99.936C123.669 95.904 127.285 92.832 131.573 92.832C137.077 92.832 139.189 96.16 139.701 98.72ZM147.557 116H143.301V100.256H147.365V102.176C148.229 100.64 150.245 99.808 151.973 99.808C154.117 99.808 155.845 100.736 156.645 102.432C157.893 100.512 159.557 99.808 161.637 99.808C164.549 99.808 167.333 101.568 167.333 105.792V116H163.205V106.656C163.205 104.96 162.373 103.68 160.421 103.68C158.597 103.68 157.509 105.088 157.509 106.784V116H153.285V106.656C153.285 104.96 152.421 103.68 150.501 103.68C148.645 103.68 147.557 105.056 147.557 106.784V116ZM170.592 111.712C170.592 108.896 172.672 107.328 175.296 106.944L179.168 106.368C180.064 106.24 180.352 105.792 180.352 105.248C180.352 104.128 179.488 103.2 177.696 103.2C175.84 103.2 174.816 104.384 174.688 105.76L170.912 104.96C171.168 102.496 173.44 99.776 177.664 99.776C182.656 99.776 184.512 102.592 184.512 105.76V113.504C184.512 114.336 184.608 115.456 184.704 116H180.8C180.704 115.584 180.64 114.72 180.64 114.112C179.84 115.36 178.336 116.448 176 116.448C172.64 116.448 170.592 114.176 170.592 111.712ZM176.896 113.28C178.688 113.28 180.352 112.416 180.352 109.632V108.928L176.8 109.472C175.712 109.632 174.848 110.24 174.848 111.456C174.848 112.384 175.52 113.28 176.896 113.28ZM198.339 100.192V104.48C197.859 104.384 197.443 104.352 197.059 104.352C194.883 104.352 192.995 105.408 192.995 108.8V116H188.739V100.256H192.867V102.592C193.827 100.512 196.003 100.128 197.347 100.128C197.699 100.128 198.019 100.16 198.339 100.192ZM206.681 95.552V100.256H209.849V104.032H206.681V110.624C206.681 112 207.321 112.448 208.537 112.448C209.049 112.448 209.625 112.384 209.849 112.32V115.84C209.465 116 208.697 116.224 207.449 116.224C204.377 116.224 202.457 114.4 202.457 111.36V104.032H199.609V100.256H200.409C202.073 100.256 202.841 99.168 202.841 97.76V95.552H206.681ZM216.442 106.336H223.482C223.418 104.768 222.394 103.232 219.962 103.232C217.754 103.232 216.538 104.896 216.442 106.336ZM223.898 110.432L227.45 111.488C226.65 114.208 224.154 116.48 220.282 116.48C215.962 116.48 212.154 113.376 212.154 108.064C212.154 103.04 215.866 99.776 219.898 99.776C224.762 99.776 227.674 102.88 227.674 107.936C227.674 108.544 227.61 109.184 227.61 109.248H216.346C216.442 111.328 218.202 112.832 220.314 112.832C222.298 112.832 223.386 111.84 223.898 110.432ZM240.682 100.192V104.48C240.202 104.384 239.786 104.352 239.402 104.352C237.226 104.352 235.338 105.408 235.338 108.8V116H231.082V100.256H235.21V102.592C236.17 100.512 238.346 100.128 239.69 100.128C240.042 100.128 240.362 100.16 240.682 100.192ZM241.348 113.312C241.348 111.712 242.66 110.4 244.26 110.4C245.892 110.4 247.204 111.712 247.204 113.312C247.204 114.912 245.892 116.224 244.26 116.224C242.66 116.224 241.348 114.912 241.348 113.312ZM273.497 116H258.969V93.312H263.385V111.776H273.497V116ZM280.432 116H276.176V100.256H280.432V116ZM275.664 95.104C275.664 93.632 276.848 92.448 278.288 92.448C279.76 92.448 280.912 93.632 280.912 95.104C280.912 96.512 279.76 97.696 278.288 97.696C276.848 97.696 275.664 96.512 275.664 95.104ZM283.714 111.616L287.362 110.816C287.458 112.064 288.386 113.216 290.242 113.216C291.65 113.216 292.322 112.48 292.322 111.648C292.322 110.944 291.842 110.368 290.626 110.112L288.546 109.632C285.506 108.96 284.13 107.136 284.13 104.928C284.13 102.112 286.626 99.776 290.018 99.776C294.498 99.776 296.002 102.624 296.194 104.32L292.642 105.12C292.514 104.192 291.842 103.008 290.05 103.008C288.93 103.008 288.034 103.68 288.034 104.576C288.034 105.344 288.61 105.824 289.474 105.984L291.714 106.464C294.818 107.104 296.386 108.992 296.386 111.296C296.386 113.856 294.402 116.48 290.274 116.48C285.538 116.48 283.906 113.408 283.714 111.616ZM305.368 95.552V100.256H308.536V104.032H305.368V110.624C305.368 112 306.008 112.448 307.224 112.448C307.736 112.448 308.312 112.384 308.536 112.32V115.84C308.152 116 307.384 116.224 306.136 116.224C303.064 116.224 301.144 114.4 301.144 111.36V104.032H298.296V100.256H299.096C300.76 100.256 301.528 99.168 301.528 97.76V95.552H305.368ZM315.129 106.336H322.169C322.105 104.768 321.081 103.232 318.649 103.232C316.441 103.232 315.225 104.896 315.129 106.336ZM322.585 110.432L326.137 111.488C325.337 114.208 322.841 116.48 318.969 116.48C314.649 116.48 310.841 113.376 310.841 108.064C310.841 103.04 314.553 99.776 318.585 99.776C323.449 99.776 326.361 102.88 326.361 107.936C326.361 108.544 326.297 109.184 326.297 109.248H315.033C315.129 111.328 316.889 112.832 319.001 112.832C320.985 112.832 322.073 111.84 322.585 110.432ZM334.026 106.944V116H329.77V100.256H333.898V102.208C334.858 100.576 336.746 99.84 338.442 99.84C342.346 99.84 344.138 102.624 344.138 106.08V116H339.882V106.816C339.882 105.056 339.018 103.68 336.97 103.68C335.114 103.68 334.026 105.12 334.026 106.944ZM360.822 111.904H364.342C368.054 111.904 371.158 109.6 371.158 104.672C371.158 99.744 368.086 97.408 364.374 97.408H360.822V111.904ZM364.502 116H356.406V93.312H364.534C370.998 93.312 375.734 97.504 375.734 104.672C375.734 111.84 370.966 116 364.502 116ZM382.629 106.336H389.669C389.605 104.768 388.581 103.232 386.149 103.232C383.941 103.232 382.725 104.896 382.629 106.336ZM390.085 110.432L393.637 111.488C392.837 114.208 390.341 116.48 386.469 116.48C382.149 116.48 378.341 113.376 378.341 108.064C378.341 103.04 382.053 99.776 386.085 99.776C390.949 99.776 393.861 102.88 393.861 107.936C393.861 108.544 393.797 109.184 393.797 109.248H382.533C382.629 111.328 384.389 112.832 386.501 112.832C388.485 112.832 389.573 111.84 390.085 110.432ZM400.598 106.336H407.638C407.574 104.768 406.55 103.232 404.118 103.232C401.91 103.232 400.694 104.896 400.598 106.336ZM408.054 110.432L411.606 111.488C410.806 114.208 408.31 116.48 404.438 116.48C400.118 116.48 396.31 113.376 396.31 108.064C396.31 103.04 400.022 99.776 404.054 99.776C408.918 99.776 411.83 102.88 411.83 107.936C411.83 108.544 411.766 109.184 411.766 109.248H400.502C400.598 111.328 402.358 112.832 404.47 112.832C406.454 112.832 407.542 111.84 408.054 110.432ZM419.495 122.08H415.239V100.256H419.367V102.176C420.071 100.96 421.831 99.904 424.199 99.904C428.807 99.904 431.463 103.424 431.463 108.096C431.463 112.864 428.487 116.384 424.039 116.384C421.863 116.384 420.263 115.52 419.495 114.464V122.08ZM427.271 108.128C427.271 105.344 425.543 103.712 423.367 103.712C421.191 103.712 419.431 105.344 419.431 108.128C419.431 110.912 421.191 112.576 423.367 112.576C425.543 112.576 427.271 110.944 427.271 108.128ZM438.223 106.336H445.263C445.199 104.768 444.175 103.232 441.743 103.232C439.535 103.232 438.319 104.896 438.223 106.336ZM445.679 110.432L449.231 111.488C448.431 114.208 445.935 116.48 442.063 116.48C437.743 116.48 433.935 113.376 433.935 108.064C433.935 103.04 437.647 99.776 441.679 99.776C446.543 99.776 449.455 102.88 449.455 107.936C449.455 108.544 449.391 109.184 449.391 109.248H438.127C438.223 111.328 439.983 112.832 442.095 112.832C444.079 112.832 445.167 111.84 445.679 110.432ZM462.464 100.192V104.48C461.984 104.384 461.568 104.352 461.184 104.352C459.008 104.352 457.12 105.408 457.12 108.8V116H452.864V100.256H456.992V102.592C457.952 100.512 460.128 100.128 461.472 100.128C461.824 100.128 462.144 100.16 462.464 100.192ZM463.129 113.312C463.129 111.712 464.441 110.4 466.041 110.4C467.673 110.4 468.985 111.712 468.985 113.312C468.985 114.912 467.673 116.224 466.041 116.224C464.441 116.224 463.129 114.912 463.129 113.312Z" fill="white"/>
<path d="M40.624 145.848L42.048 145.496C42.176 146.792 43.152 147.832 44.624 147.832C46.112 147.832 47.136 146.824 47.136 145.4C47.136 143.832 46.064 142.92 44.624 142.92C43.664 142.92 42.864 143.352 42.368 143.992L40.944 143.464L42.176 137.656H48.16V139.096H43.248L42.512 142.568C43.072 141.928 44.096 141.624 44.928 141.624C47.184 141.624 48.688 143.064 48.688 145.384C48.688 147.48 47.136 149.208 44.624 149.208C42.352 149.208 40.784 147.672 40.624 145.848ZM50.3019 143.336C50.3019 140.648 51.2139 137.448 54.6859 137.448C58.1579 137.448 59.0699 140.648 59.0699 143.336C59.0699 145.992 58.1899 149.208 54.6859 149.208C51.1979 149.208 50.3019 145.976 50.3019 143.336ZM57.5179 143.336C57.5179 141.064 56.9099 138.856 54.6859 138.856C52.4459 138.856 51.8699 141.048 51.8699 143.336C51.8699 145.608 52.4619 147.816 54.6859 147.816C56.9099 147.816 57.5179 145.608 57.5179 143.336ZM68.4971 149L64.6571 143.848L63.0411 145.576V149H61.4731V137.656H63.0411V143.496L68.3531 137.656H70.4171L65.6971 142.712L70.4811 149H68.4971ZM71.2665 142.792H74.2585V139.672H75.5705V142.792H78.5785V144.056H75.5705V147.208H74.2585V144.056H71.2665V142.792ZM91.7605 149H84.8325V137.656H86.4005V147.528H91.7605V149ZM94.7665 149H93.2785V141.304H94.7665V149ZM92.9425 138.392C92.9425 137.784 93.4225 137.304 94.0145 137.304C94.6225 137.304 95.1025 137.784 95.1025 138.392C95.1025 138.984 94.6225 139.464 94.0145 139.464C93.4225 139.464 92.9425 138.984 92.9425 138.392ZM96.5924 147L97.9524 146.52C98.0484 147.32 98.6564 147.96 99.7444 147.96C100.592 147.96 101.056 147.48 101.056 146.936C101.056 146.456 100.704 146.088 100.064 145.944L98.7524 145.656C97.5524 145.4 96.8324 144.584 96.8324 143.496C96.8324 142.184 98.0644 141.064 99.5684 141.064C101.68 141.064 102.336 142.44 102.496 143.128L101.168 143.624C101.104 143.224 100.784 142.344 99.5684 142.344C98.8004 142.344 98.2884 142.84 98.2884 143.368C98.2884 143.832 98.5764 144.168 99.1684 144.296L100.416 144.568C101.808 144.872 102.544 145.72 102.544 146.856C102.544 147.944 101.632 149.24 99.7284 149.24C97.6164 149.24 96.7204 147.88 96.5924 147ZM106.578 138.872V141.304H108.242V142.664H106.578V146.664C106.578 147.368 106.866 147.72 107.65 147.72C107.842 147.72 108.114 147.688 108.242 147.656V148.936C108.114 148.984 107.73 149.08 107.218 149.08C105.906 149.08 105.074 148.28 105.074 146.888V142.664H103.602V141.304H104.018C104.85 141.304 105.202 140.792 105.202 140.12V138.872H106.578ZM111.054 144.36H115.262C115.23 143.256 114.51 142.392 113.15 142.392C111.886 142.392 111.118 143.368 111.054 144.36ZM115.486 146.36L116.782 146.808C116.35 148.168 115.118 149.24 113.326 149.24C111.262 149.24 109.454 147.736 109.454 145.128C109.454 142.712 111.198 141.064 113.134 141.064C115.502 141.064 116.83 142.696 116.83 145.096C116.83 145.288 116.814 145.48 116.798 145.576H111.006C111.038 146.952 112.03 147.912 113.326 147.912C114.574 147.912 115.198 147.224 115.486 146.36ZM120.22 144.552V149H118.716V141.304H120.188V142.408C120.748 141.448 121.66 141.08 122.556 141.08C124.396 141.08 125.308 142.408 125.308 144.12V149H123.804V144.376C123.804 143.304 123.356 142.44 122.012 142.44C120.828 142.44 120.22 143.384 120.22 144.552ZM128.742 144.36H132.95C132.918 143.256 132.198 142.392 130.838 142.392C129.574 142.392 128.806 143.368 128.742 144.36ZM133.174 146.36L134.47 146.808C134.038 148.168 132.806 149.24 131.014 149.24C128.95 149.24 127.142 147.736 127.142 145.128C127.142 142.712 128.886 141.064 130.822 141.064C133.19 141.064 134.517 142.696 134.517 145.096C134.517 145.288 134.502 145.48 134.486 145.576H128.694C128.726 146.952 129.718 147.912 131.014 147.912C132.262 147.912 132.886 147.224 133.174 146.36ZM140.676 141.224V142.824C140.452 142.792 140.228 142.776 140.02 142.776C138.756 142.776 137.908 143.448 137.908 145.144V149H136.404V141.304H137.876V142.648C138.436 141.464 139.396 141.176 140.18 141.176C140.388 141.176 140.596 141.208 140.676 141.224ZM141.608 147L142.968 146.52C143.064 147.32 143.672 147.96 144.76 147.96C145.608 147.96 146.072 147.48 146.072 146.936C146.072 146.456 145.72 146.088 145.08 145.944L143.768 145.656C142.568 145.4 141.848 144.584 141.848 143.496C141.848 142.184 143.08 141.064 144.584 141.064C146.696 141.064 147.352 142.44 147.512 143.128L146.184 143.624C146.12 143.224 145.8 142.344 144.584 142.344C143.816 142.344 143.304 142.84 143.304 143.368C143.304 143.832 143.592 144.168 144.184 144.296L145.432 144.568C146.824 144.872 147.56 145.72 147.56 146.856C147.56 147.944 146.648 149.24 144.744 149.24C142.632 149.24 141.736 147.88 141.608 147Z" fill="white"/>
<rect x="40" y="189" width="143" height="47" rx="23.5" fill="white"/>
<path d="M72.432 218H65.424V206.656H72.432V208.448H67.344V211.456H71.952V213.2H67.344V216.208H72.432V218ZM73.5373 218L76.3693 214.064L73.5853 210.208H75.7933C75.9373 210.448 77.3613 212.48 77.5052 212.704L79.2013 210.208H81.3133L78.5773 214.032L81.4093 218H79.2333L77.4253 215.392C77.2653 215.632 75.8093 217.76 75.6653 218H73.5373ZM84.6326 221.04H82.7926V210.208H84.5846V211.264C84.9686 210.592 85.8646 210.032 87.0646 210.032C89.3686 210.032 90.6646 211.792 90.6646 214.096C90.6646 216.432 89.2406 218.192 87.0006 218.192C85.8806 218.192 85.0326 217.712 84.6326 217.12V221.04ZM88.8086 214.096C88.8086 212.64 87.9606 211.68 86.7126 211.68C85.4966 211.68 84.6166 212.64 84.6166 214.096C84.6166 215.584 85.4966 216.544 86.7126 216.544C87.9446 216.544 88.8086 215.584 88.8086 214.096ZM94.3518 218H92.4958V206.416H94.3518V218ZM100.188 216.576C101.34 216.576 102.364 215.728 102.364 214.096C102.364 212.48 101.34 211.648 100.188 211.648C99.052 211.648 98.012 212.48 98.012 214.096C98.012 215.712 99.052 216.576 100.188 216.576ZM100.188 209.968C102.524 209.968 104.236 211.712 104.236 214.096C104.236 216.496 102.524 218.24 100.188 218.24C97.868 218.24 96.156 216.496 96.156 214.096C96.156 211.712 97.868 209.968 100.188 209.968ZM110.603 210.16V212.048C110.395 212.016 110.187 212 109.995 212C108.555 212 107.899 212.832 107.899 214.288V218H106.043V210.208H107.851V211.456C108.219 210.608 109.083 210.112 110.107 210.112C110.331 210.112 110.523 210.144 110.603 210.16ZM113.373 213.248H117.197C117.165 212.336 116.557 211.52 115.277 211.52C114.109 211.52 113.437 212.416 113.373 213.248ZM117.405 215.28L118.973 215.776C118.557 217.136 117.325 218.24 115.453 218.24C113.341 218.24 111.469 216.704 111.469 214.064C111.469 211.6 113.293 209.968 115.261 209.968C117.661 209.968 119.069 211.552 119.069 214.016C119.069 214.32 119.036 214.576 119.021 214.608H113.325C113.373 215.792 114.301 216.64 115.453 216.64C116.573 216.64 117.149 216.048 117.405 215.28ZM134.538 218H132.538L126.938 209.408V218H125.018V206.656H127.466L132.618 214.704V206.656H134.538V218ZM140.501 216.576C141.653 216.576 142.677 215.728 142.677 214.096C142.677 212.48 141.653 211.648 140.501 211.648C139.365 211.648 138.325 212.48 138.325 214.096C138.325 215.712 139.365 216.576 140.501 216.576ZM140.501 209.968C142.837 209.968 144.549 211.712 144.549 214.096C144.549 216.496 142.837 218.24 140.501 218.24C138.181 218.24 136.469 216.496 136.469 214.096C136.469 211.712 138.181 209.968 140.501 209.968ZM150.774 210.208H152.694L154.534 215.6L156.086 210.208H157.974L155.478 218H153.622L151.686 212.4L149.798 218H147.894L145.366 210.208H147.35L148.934 215.6L150.774 210.208Z" fill="#1B1B1D"/>
<g style="mix-blend-mode:soft-light" clip-path="url(#clip0_91_100)">
<path d="M704.045 180.482C699.833 185.824 694.467 190.144 688.35 193.121C682.233 196.097 675.522 197.652 668.719 197.669C656.337 197.459 644.546 192.34 635.938 183.438C627.33 174.536 622.61 162.579 622.816 150.198C622.761 138.996 626.61 128.125 633.699 119.452C635.945 123.341 639.222 126.533 643.169 128.676C648.657 130.496 654.241 132.015 659.895 133.226C657.066 135.034 654.738 137.525 653.126 140.47C651.514 143.414 650.67 146.718 650.671 150.075C650.825 155.077 652.782 159.854 656.18 163.528C659.578 167.201 664.189 169.523 669.163 170.066C674.138 170.609 679.141 169.336 683.252 166.481C687.362 163.627 690.303 159.384 691.532 154.533C697.18 162.389 701.414 171.171 704.045 180.482Z" fill="white"/>
<path d="M802.523 150.198C802.729 162.579 798.009 174.536 789.401 183.438C780.793 192.34 769.002 197.459 756.62 197.669C749.821 197.651 743.113 196.099 736.996 193.128C730.88 190.158 725.512 185.846 721.294 180.513C723.989 171.217 728.275 162.458 733.961 154.625C735.189 159.474 738.127 163.717 742.234 166.572C746.341 169.427 751.342 170.702 756.315 170.163C761.288 169.625 765.899 167.308 769.299 163.639C772.7 159.971 774.661 155.197 774.822 150.198C774.823 146.841 773.979 143.537 772.367 140.593C770.755 137.648 768.427 135.157 765.598 133.349C771.243 132.143 776.816 130.624 782.293 128.799C786.239 126.656 789.517 123.464 791.762 119.575C798.774 128.236 802.576 139.055 802.523 150.198Z" fill="white"/>
<path d="M680.648 150.689C680.691 152.699 680.134 154.675 679.049 156.367C677.964 158.058 676.399 159.388 674.555 160.187C672.711 160.985 670.671 161.217 668.695 160.851C666.719 160.485 664.896 159.539 663.46 158.134C662.024 156.728 661.039 154.926 660.631 152.959C660.222 150.991 660.41 148.946 661.169 147.085C661.928 145.224 663.224 143.631 664.891 142.51C666.559 141.389 668.523 140.79 670.533 140.789C671.848 140.773 673.153 141.017 674.373 141.506C675.594 141.995 676.706 142.72 677.645 143.64C678.585 144.559 679.334 145.656 679.849 146.865C680.365 148.075 680.636 149.375 680.648 150.689Z" fill="white"/>
<path d="M764.983 150.689C765.032 152.706 764.479 154.691 763.394 156.392C762.309 158.092 760.742 159.431 758.893 160.237C757.044 161.042 754.997 161.279 753.013 160.916C751.029 160.552 749.198 159.606 747.754 158.197C746.31 156.789 745.319 154.982 744.908 153.007C744.496 151.032 744.682 148.98 745.442 147.112C746.202 145.243 747.502 143.644 749.175 142.518C750.849 141.392 752.82 140.79 754.837 140.789C756.153 140.773 757.46 141.016 758.682 141.505C759.904 141.994 761.018 142.719 761.961 143.638C762.903 144.557 763.655 145.653 764.173 146.863C764.692 148.073 764.967 149.373 764.983 150.689Z" fill="white"/>
<path d="M811.624 83.4183C809.497 93.9351 804.12 103.518 796.251 110.813C794.199 112.759 792.011 114.557 789.702 116.193L789.057 116.654C783.922 120.31 778.219 123.094 772.178 124.894C766.363 125.915 760.701 127.672 755.329 130.121C747.454 133.512 740.312 138.398 734.299 144.51C728.448 150.612 724.072 157.975 721.509 166.032C721.509 166.032 719.972 171.412 718.895 177.469C718.456 179.786 718.148 182.127 717.973 184.479C717.727 187.553 717.481 192.042 716.989 196.254C716.251 202.65 714.991 208.553 712.5 209.014C709.672 208.522 708.442 200.989 707.766 193.641C707.458 190.259 707.243 186.939 707.058 184.417C706.874 181.896 706.597 180.021 706.228 177.776C705.121 171.627 703.523 165.97 703.523 165.97C701.006 158.238 696.806 151.161 691.224 145.248C685.126 138.849 677.808 133.737 669.703 130.213C665.814 128.499 661.794 127.1 657.681 126.032C656.062 125.59 654.42 125.241 652.762 124.986C646.793 123.23 641.16 120.487 636.098 116.869L635.298 116.193C633.292 114.804 631.372 113.295 629.549 111.673C621.215 104.276 615.534 94.3511 613.377 83.4183C611.194 74.6865 614.238 68.0455 616.236 67.1846C618.235 66.3237 618.757 68.6604 618.757 68.6604C618.757 68.6604 615.898 85.4475 640.617 95.4705C646.661 97.6852 652.914 99.2818 659.28 100.236C663.145 100.76 666.96 101.604 670.686 102.757C683.323 106.6 700.694 115.424 707.919 135.347C709.432 139.449 710.353 143.746 710.656 148.107C710.902 150.136 711.148 152.411 711.363 155.025C711.325 155.179 711.322 155.339 711.355 155.495C711.388 155.65 711.456 155.795 711.554 155.92C711.652 156.045 711.777 156.146 711.919 156.216C712.062 156.286 712.219 156.322 712.377 156.322C712.536 156.322 712.693 156.286 712.835 156.216C712.978 156.146 713.103 156.045 713.201 155.92C713.299 155.795 713.367 155.65 713.4 155.495C713.433 155.339 713.43 155.179 713.392 155.025C713.669 151.612 714.007 148.876 714.345 146.354C714.666 142.589 715.504 138.885 716.836 135.347C724.153 115.455 741.432 106.631 754.13 102.788C757.878 101.63 761.713 100.776 765.598 100.236C771.964 99.2818 778.217 97.6852 784.261 95.4705C809.103 85.4475 806.305 68.6604 806.305 68.6604C806.305 68.6604 806.828 66.3237 808.857 67.1846C810.886 68.0455 813.807 74.6865 811.624 83.4183Z" fill="white"/>
</g>
</g>
<defs>
<linearGradient id="paint0_linear_91_100" x1="0" y1="0" x2="856.144" y2="362.94" gradientUnits="userSpaceOnUse">
<stop stop-color="#6B1ACF"/>
<stop offset="0.49" stop-color="#E54B3C"/>
<stop offset="1" stop-color="#6B1ACF"/>
</linearGradient>
<clipPath id="clip0_91_100">
<rect width="199.754" height="141.86" fill="white" transform="translate(612.608 67)"/>
</clipPath>
</defs>
</svg>
