<svg width="448" height="137" viewBox="0 0 448 137" fill="none" xmlns="http://www.w3.org/2000/svg">
<rect x="0.833496" y="0.900391" width="215.913" height="122.254" rx="23.462" fill="white"/>
<path d="M27.8404 40.3669H25.9684V37.5829C22.6084 37.1989 20.9524 34.8469 20.7124 32.5909L22.7524 31.9909C22.9204 33.6469 23.9764 35.2069 25.9924 35.5669V30.0229L25.2964 29.8549C22.8964 29.3509 21.3364 27.7909 21.3364 25.4389C21.3364 22.9189 23.3524 20.9989 25.9684 20.6629V17.8549H27.8404V20.6869C30.6004 21.0469 31.9444 22.9669 32.3284 24.7909L30.3124 25.4389C30.0964 24.3349 29.3524 23.1589 27.8164 22.7749V28.1509L28.2484 28.2469C30.9844 28.8229 32.5684 30.5029 32.5684 32.8309C32.5684 35.1349 30.8164 37.2229 27.8404 37.5829V40.3669ZM30.3124 32.9989C30.3124 31.6549 29.4004 30.7909 27.8164 30.4309V35.5669C29.4244 35.2789 30.3124 34.2469 30.3124 32.9989ZM23.5444 25.2709C23.5444 26.4949 24.2884 27.4069 25.7524 27.7189L25.9924 27.7669V22.7269C24.5524 22.9909 23.5444 23.9989 23.5444 25.2709ZM46.5199 37.6309H34.8079C34.8559 35.1109 35.7439 32.7349 38.4319 31.1029L41.5279 29.1589C43.1839 28.1029 44.0479 27.0229 44.0479 25.5109C44.0479 23.7829 42.7999 22.3669 40.7839 22.3669C38.5519 22.3669 37.1359 23.8309 37.1359 26.0389C37.1359 26.3029 37.1599 26.6149 37.2319 26.9269L34.9999 26.8309C34.9519 26.5669 34.9039 26.0869 34.9039 25.7749C34.9039 22.8229 37.0159 20.3029 40.7119 20.3029C44.2639 20.3029 46.3519 22.6309 46.3519 25.4629C46.3519 27.6469 45.0799 29.3509 43.0879 30.5989L39.5839 32.7589C38.5999 33.3829 37.8559 34.3669 37.6159 35.4709H46.5199V37.6309ZM49.155 36.0949C49.155 35.2309 49.899 34.4869 50.907 34.4869C51.939 34.4869 52.851 35.2549 52.851 36.7669C52.851 39.9349 50.787 41.2549 49.299 41.4469V40.1989C50.475 39.9349 51.267 38.7589 51.291 37.6069C51.219 37.6549 51.027 37.7269 50.763 37.7269C49.875 37.7269 49.155 37.1269 49.155 36.0949ZM65.5129 29.3749C64.7209 30.6709 62.9689 31.7029 61.0489 31.7029C58.0009 31.7029 55.3609 29.6149 55.3609 26.0869C55.3609 22.6789 57.8809 20.3269 61.3849 20.3029C65.1529 20.3029 67.7689 23.1349 67.7689 28.4629C67.7689 34.7269 65.0329 37.9429 60.0889 37.9429C58.4329 37.9429 56.6329 37.3669 55.7689 36.4789L56.5129 34.6309C57.2089 35.3269 58.6249 35.8789 60.0409 35.8789C63.3529 35.8789 65.3929 33.6469 65.5129 29.3749ZM65.0089 25.9429C64.9849 23.7349 63.3529 22.3429 61.2889 22.3429C59.2249 22.3429 57.5929 23.7589 57.5929 25.9909C57.5929 28.2949 59.2249 29.7109 61.3129 29.7109C63.4249 29.7109 65.0089 28.2229 65.0089 25.9429ZM76.3642 29.8549C73.9402 29.8549 72.6682 31.2469 72.6682 32.9269C72.6682 34.5829 74.0122 35.9749 76.3642 35.9749C78.7162 35.9749 80.0602 34.5829 80.0602 32.9269C80.0602 31.2469 78.7882 29.8549 76.3642 29.8549ZM76.3642 37.9429C72.6922 37.9429 70.3882 35.9029 70.3882 33.1429C70.3882 31.1509 71.7322 29.4709 73.7482 28.9189C71.9002 28.3669 70.7242 26.7109 70.7242 24.9589C70.7242 22.2709 73.0042 20.3029 76.3642 20.3029C79.7242 20.3029 82.0042 22.2709 82.0042 24.9589C82.0042 26.7109 80.8282 28.3669 78.9562 28.9189C80.9962 29.4709 82.3402 31.1509 82.3402 33.1429C82.3402 35.9029 80.0362 37.9429 76.3642 37.9429ZM76.3642 28.0069C78.4282 27.9829 79.7002 26.7589 79.7002 25.1029C79.7002 23.5189 78.4762 22.2949 76.3642 22.2949C74.2522 22.2949 73.0282 23.5189 73.0282 25.1029C73.0282 26.7589 74.3242 27.9829 76.3642 28.0069ZM90.3658 37.6309H88.0618V25.1989H84.2938V23.5429C86.4538 23.4949 87.9418 22.2949 88.3018 20.6149H90.3658V37.6309Z" fill="#262628"/>
<path d="M158.165 20.9102L155.185 38.3982H159.951L162.933 20.9102H158.165Z" fill="#40E0D0"/>
<path d="M151.19 20.9287L146.523 32.8547L146.026 31.054C145.105 28.8852 142.492 25.7692 139.423 23.8043L143.691 38.3888L148.734 38.38L156.241 20.9258L151.19 20.9287Z" fill="#40E0D0"/>
<path d="M144.215 22.1788C143.938 21.1128 143.136 20.7959 142.139 20.7578H134.75L134.688 21.1053C140.438 22.5013 144.243 25.8623 145.822 29.9036L144.215 22.1788Z" fill="#40E0D0"/>
<path d="M172.591 24.2584C173.814 24.2318 175.029 24.46 176.158 24.9286L176.59 25.131L177.233 21.3404C175.865 20.8446 174.419 20.5959 172.963 20.6058C168.255 20.6058 164.935 22.9783 164.91 26.3774C164.878 28.8893 167.274 30.2911 169.083 31.1284C170.94 31.9862 171.563 32.5318 171.554 33.2987C171.539 34.4688 170.073 35.0055 168.703 35.0055C166.796 35.0055 165.782 34.7416 164.216 34.0905L163.602 33.8104L162.932 37.7242C164.048 38.214 166.105 38.6348 168.242 38.6568C173.252 38.6568 176.507 36.3121 176.543 32.6799C176.563 30.6929 175.292 29.1767 172.538 27.9332C170.871 27.1209 169.85 26.5826 169.86 25.7629C169.86 25.0356 170.726 24.2584 172.591 24.2584Z" fill="#40E0D0"/>
<path d="M189.467 20.9258H185.785C184.641 20.9258 183.791 21.2366 183.288 22.3775L176.211 38.4035H181.216C181.216 38.4035 182.033 36.2479 182.218 35.7758L188.322 35.7831C188.464 36.3946 188.903 38.4035 188.903 38.4035H193.324L189.467 20.9258ZM183.59 32.1964C183.982 31.1934 185.489 27.3089 185.489 27.3089C185.463 27.3573 185.878 26.2986 186.124 25.6402L186.445 27.1477L187.549 32.1964H183.59Z" fill="#40E0D0"/>
<path d="M24.1204 94.0798V96.2238L26.0884 95.5518L26.4564 96.7038L24.4724 97.3598L25.7844 99.0398L24.8084 99.7758L23.4804 98.0318L22.2324 99.7598L21.2564 99.0238L22.5204 97.3598L20.5364 96.7038L20.9044 95.5518L22.8564 96.2398V94.0798H24.1204ZM31.3391 94.0798V96.2238L33.3071 95.5518L33.6751 96.7038L31.6911 97.3598L33.0031 99.0398L32.0271 99.7758L30.6991 98.0318L29.4511 99.7598L28.4751 99.0238L29.7391 97.3598L27.7551 96.7038L28.1231 95.5518L30.0751 96.2398V94.0798H31.3391ZM38.5579 94.0798V96.2238L40.5259 95.5518L40.8939 96.7038L38.9099 97.3598L40.2219 99.0398L39.2459 99.7758L37.9179 98.0318L36.6699 99.7598L35.6939 99.0238L36.9579 97.3598L34.9739 96.7038L35.3419 95.5518L37.2939 96.2398V94.0798H38.5579ZM45.7766 94.0798V96.2238L47.7446 95.5518L48.1126 96.7038L46.1286 97.3598L47.4406 99.0398L46.4646 99.7758L45.1366 98.0318L43.8886 99.7598L42.9126 99.0238L44.1766 97.3598L42.1926 96.7038L42.5606 95.5518L44.5126 96.2398V94.0798H45.7766ZM57.2666 105.424H55.7306V97.1358H53.2186V96.0318C54.6586 95.9998 55.6506 95.1998 55.8906 94.0798H57.2666V105.424ZM67.1621 94.0798V95.4398C65.3221 97.1358 62.8261 100.192 62.3141 105.424H60.6981C61.2101 99.8398 64.0741 96.7038 65.3221 95.5198H58.9061V94.0798H67.1621ZM76.0527 94.0798V95.4398C74.2127 97.1358 71.7167 100.192 71.2047 105.424H69.5887C70.1007 99.8398 72.9647 96.7038 74.2127 95.5198H67.7967V94.0798H76.0527ZM84.9434 94.0798V95.4398C83.1034 97.1358 80.6074 100.192 80.0954 105.424H78.4794C78.9914 99.8398 81.8554 96.7038 83.1034 95.5198H76.6874V94.0798H84.9434Z" fill="#262628"/>
<path d="M158.308 105.424H150.5C150.532 103.744 151.124 102.16 152.916 101.072L154.98 99.7758C156.084 99.0718 156.66 98.3518 156.66 97.3438C156.66 96.1918 155.828 95.2478 154.484 95.2478C152.996 95.2478 152.052 96.2238 152.052 97.6958C152.052 97.8718 152.068 98.0798 152.116 98.2878L150.628 98.2238C150.596 98.0478 150.564 97.7278 150.564 97.5198C150.564 95.5518 151.972 93.8718 154.436 93.8718C156.804 93.8718 158.196 95.4238 158.196 97.3118C158.196 98.7678 157.348 99.9038 156.02 100.736L153.684 102.176C153.028 102.592 152.532 103.248 152.372 103.984H158.308V105.424ZM160.032 99.7598C160.032 97.0718 160.944 93.8718 164.416 93.8718C167.888 93.8718 168.8 97.0718 168.8 99.7598C168.8 102.416 167.92 105.632 164.416 105.632C160.928 105.632 160.032 102.4 160.032 99.7598ZM167.248 99.7598C167.248 97.4878 166.64 95.2798 164.416 95.2798C162.176 95.2798 161.6 97.4718 161.6 99.7598C161.6 102.032 162.192 104.24 164.416 104.24C166.64 104.24 167.248 102.032 167.248 99.7598ZM177.076 94.0798L171.588 105.424H170.132L175.62 94.0798H177.076ZM186.136 105.424H178.328C178.36 103.744 178.952 102.16 180.744 101.072L182.808 99.7758C183.912 99.0718 184.488 98.3518 184.488 97.3438C184.488 96.1918 183.656 95.2478 182.312 95.2478C180.824 95.2478 179.88 96.2238 179.88 97.6958C179.88 97.8718 179.896 98.0798 179.944 98.2878L178.456 98.2238C178.424 98.0478 178.392 97.7278 178.392 97.5198C178.392 95.5518 179.8 93.8718 182.264 93.8718C184.632 93.8718 186.024 95.4238 186.024 97.3118C186.024 98.7678 185.176 99.9038 183.848 100.736L181.512 102.176C180.856 102.592 180.36 103.248 180.2 103.984H186.136V105.424ZM189.316 99.8398C189.764 98.7678 190.932 97.9518 192.564 97.9518C194.724 97.9518 196.276 99.4878 196.276 101.76C196.276 104.032 194.452 105.632 192.18 105.632C189.7 105.632 187.828 103.744 187.828 100.432C187.828 96.1278 190.388 93.8718 193.652 93.8718C194.708 93.8718 195.54 94.1278 196.052 94.4638L195.604 95.7758C195.108 95.5038 194.42 95.2638 193.572 95.2638C190.948 95.2638 189.492 97.2318 189.316 99.8398ZM189.62 101.792C189.62 103.28 190.804 104.288 192.164 104.288C193.572 104.288 194.74 103.296 194.74 101.792C194.74 100.24 193.62 99.2798 192.196 99.2798C190.772 99.2798 189.62 100.32 189.62 101.792Z" fill="#444444"/>
<rect x="234.343" y="0.900391" width="212.913" height="122.254" rx="23.462" fill="#2D2D2F"/>
<path d="M261.35 40.3669H259.478V37.5829C256.118 37.1989 254.462 34.8469 254.222 32.5909L256.262 31.9909C256.43 33.6469 257.486 35.2069 259.502 35.5669V30.0229L258.806 29.8549C256.406 29.3509 254.846 27.7909 254.846 25.4389C254.846 22.9189 256.862 20.9989 259.478 20.6629V17.8549H261.35V20.6869C264.11 21.0469 265.454 22.9669 265.838 24.7909L263.822 25.4389C263.606 24.3349 262.862 23.1589 261.326 22.7749V28.1509L261.758 28.2469C264.494 28.8229 266.078 30.5029 266.078 32.8309C266.078 35.1349 264.326 37.2229 261.35 37.5829V40.3669ZM263.822 32.9989C263.822 31.6549 262.91 30.7909 261.326 30.4309V35.5669C262.934 35.2789 263.822 34.2469 263.822 32.9989ZM257.054 25.2709C257.054 26.4949 257.798 27.4069 259.262 27.7189L259.502 27.7669V22.7269C258.062 22.9909 257.054 23.9989 257.054 25.2709ZM268.029 32.9029L270.165 32.3749C270.357 34.3189 271.821 35.8789 274.029 35.8789C276.261 35.8789 277.797 34.3669 277.797 32.2309C277.797 29.8789 276.189 28.5109 274.029 28.5109C272.589 28.5109 271.389 29.1589 270.645 30.1189L268.509 29.3269L270.357 20.6149H279.333V22.7749H271.965L270.861 27.9829C271.701 27.0229 273.237 26.5669 274.485 26.5669C277.869 26.5669 280.125 28.7269 280.125 32.2069C280.125 35.3509 277.797 37.9429 274.029 37.9429C270.621 37.9429 268.269 35.6389 268.029 32.9029ZM294.162 37.6309H282.45C282.498 35.1109 283.386 32.7349 286.074 31.1029L289.17 29.1589C290.826 28.1029 291.69 27.0229 291.69 25.5109C291.69 23.7829 290.442 22.3669 288.426 22.3669C286.194 22.3669 284.778 23.8309 284.778 26.0389C284.778 26.3029 284.802 26.6149 284.874 26.9269L282.642 26.8309C282.594 26.5669 282.546 26.0869 282.546 25.7749C282.546 22.8229 284.658 20.3029 288.354 20.3029C291.906 20.3029 293.994 22.6309 293.994 25.4629C293.994 27.6469 292.722 29.3509 290.73 30.5989L287.226 32.7589C286.242 33.3829 285.498 34.3669 285.258 35.4709H294.162V37.6309ZM296.749 29.1349C296.749 25.1029 298.117 20.3029 303.325 20.3029C308.533 20.3029 309.901 25.1029 309.901 29.1349C309.901 33.1189 308.581 37.9429 303.325 37.9429C298.093 37.9429 296.749 33.0949 296.749 29.1349ZM307.573 29.1349C307.573 25.7269 306.661 22.4149 303.325 22.4149C299.965 22.4149 299.101 25.7029 299.101 29.1349C299.101 32.5429 299.989 35.8549 303.325 35.8549C306.661 35.8549 307.573 32.5429 307.573 29.1349Z" fill="white"/>
<path d="M393.034 20.9102L390.054 38.3982H394.82L397.803 20.9102H393.034Z" fill="white"/>
<path d="M386.06 20.9287L381.392 32.8547L380.895 31.054C379.974 28.8852 377.361 25.7692 374.292 23.8043L378.561 38.3888L383.604 38.38L391.11 20.9258L386.06 20.9287Z" fill="white"/>
<path d="M379.084 22.1788C378.807 21.1128 378.005 20.7959 377.008 20.7578H369.619L369.557 21.1053C375.307 22.5013 379.112 25.8623 380.691 29.9036L379.084 22.1788Z" fill="white"/>
<path d="M407.46 24.2584C408.683 24.2318 409.898 24.46 411.028 24.9286L411.459 25.131L412.102 21.3404C410.734 20.8446 409.288 20.5959 407.832 20.6058C403.124 20.6058 399.804 22.9783 399.779 26.3774C399.747 28.8893 402.143 30.2911 403.952 31.1284C405.809 31.9862 406.432 32.5318 406.423 33.2987C406.409 34.4688 404.942 35.0055 403.573 35.0055C401.665 35.0055 400.652 34.7416 399.085 34.0905L398.471 33.8104L397.801 37.7242C398.917 38.214 400.974 38.6348 403.111 38.6568C408.121 38.6568 411.377 36.3121 411.412 32.6799C411.432 30.6929 410.161 29.1767 407.407 27.9332C405.74 27.1209 404.719 26.5826 404.73 25.7629C404.73 25.0356 405.595 24.2584 407.46 24.2584Z" fill="white"/>
<path d="M424.336 20.9258H420.654C419.511 20.9258 418.66 21.2366 418.157 22.3775L411.08 38.4035H416.085C416.085 38.4035 416.902 36.2479 417.087 35.7758L423.191 35.7831C423.333 36.3946 423.772 38.4035 423.772 38.4035H428.193L424.336 20.9258ZM418.459 32.1964C418.851 31.1934 420.358 27.3089 420.358 27.3089C420.332 27.3573 420.747 26.2986 420.993 25.6402L421.314 27.1477L422.418 32.1964H418.459Z" fill="white"/>
<path d="M257.63 94.0798V96.2238L259.598 95.5518L259.966 96.7038L257.982 97.3598L259.294 99.0398L258.318 99.7758L256.99 98.0318L255.742 99.7598L254.766 99.0238L256.03 97.3598L254.046 96.7038L254.414 95.5518L256.366 96.2398V94.0798H257.63ZM264.849 94.0798V96.2238L266.817 95.5518L267.185 96.7038L265.201 97.3598L266.513 99.0398L265.537 99.7758L264.209 98.0318L262.961 99.7598L261.985 99.0238L263.249 97.3598L261.265 96.7038L261.633 95.5518L263.585 96.2398V94.0798H264.849ZM272.067 94.0798V96.2238L274.035 95.5518L274.403 96.7038L272.419 97.3598L273.731 99.0398L272.755 99.7758L271.427 98.0318L270.179 99.7598L269.203 99.0238L270.467 97.3598L268.483 96.7038L268.851 95.5518L270.803 96.2398V94.0798H272.067ZM279.286 94.0798V96.2238L281.254 95.5518L281.622 96.7038L279.638 97.3598L280.95 99.0398L279.974 99.7758L278.646 98.0318L277.398 99.7598L276.422 99.0238L277.686 97.3598L275.702 96.7038L276.07 95.5518L278.022 96.2398V94.0798H279.286ZM290.776 105.424H289.24V97.1358H286.728V96.0318C288.168 95.9998 289.16 95.1998 289.4 94.0798H290.776V105.424ZM296.864 100.24C295.248 100.24 294.4 101.168 294.4 102.288C294.4 103.392 295.296 104.32 296.864 104.32C298.432 104.32 299.328 103.392 299.328 102.288C299.328 101.168 298.48 100.24 296.864 100.24ZM296.864 105.632C294.416 105.632 292.88 104.272 292.88 102.432C292.88 101.104 293.776 99.9838 295.12 99.6158C293.888 99.2478 293.104 98.1438 293.104 96.9758C293.104 95.1838 294.624 93.8718 296.864 93.8718C299.104 93.8718 300.624 95.1838 300.624 96.9758C300.624 98.1438 299.84 99.2478 298.592 99.6158C299.952 99.9838 300.848 101.104 300.848 102.432C300.848 104.272 299.312 105.632 296.864 105.632ZM296.864 99.0078C298.24 98.9918 299.088 98.1758 299.088 97.0718C299.088 96.0158 298.272 95.1998 296.864 95.1998C295.456 95.1998 294.64 96.0158 294.64 97.0718C294.64 98.1758 295.504 98.9918 296.864 99.0078ZM306.598 100.24C304.982 100.24 304.134 101.168 304.134 102.288C304.134 103.392 305.03 104.32 306.598 104.32C308.166 104.32 309.062 103.392 309.062 102.288C309.062 101.168 308.214 100.24 306.598 100.24ZM306.598 105.632C304.15 105.632 302.614 104.272 302.614 102.432C302.614 101.104 303.51 99.9838 304.854 99.6158C303.622 99.2478 302.838 98.1438 302.838 96.9758C302.838 95.1838 304.358 93.8718 306.598 93.8718C308.838 93.8718 310.358 95.1838 310.358 96.9758C310.358 98.1438 309.574 99.2478 308.326 99.6158C309.686 99.9838 310.582 101.104 310.582 102.432C310.582 104.272 309.046 105.632 306.598 105.632ZM306.598 99.0078C307.974 98.9918 308.822 98.1758 308.822 97.0718C308.822 96.0158 308.006 95.1998 306.598 95.1998C305.19 95.1998 304.374 96.0158 304.374 97.0718C304.374 98.1758 305.238 98.9918 306.598 99.0078ZM316.332 100.24C314.716 100.24 313.868 101.168 313.868 102.288C313.868 103.392 314.764 104.32 316.332 104.32C317.9 104.32 318.796 103.392 318.796 102.288C318.796 101.168 317.948 100.24 316.332 100.24ZM316.332 105.632C313.884 105.632 312.348 104.272 312.348 102.432C312.348 101.104 313.244 99.9838 314.588 99.6158C313.356 99.2478 312.572 98.1438 312.572 96.9758C312.572 95.1838 314.092 93.8718 316.332 93.8718C318.572 93.8718 320.092 95.1838 320.092 96.9758C320.092 98.1438 319.308 99.2478 318.06 99.6158C319.42 99.9838 320.316 101.104 320.316 102.432C320.316 104.272 318.78 105.632 316.332 105.632ZM316.332 99.0078C317.708 98.9918 318.556 98.1758 318.556 97.0718C318.556 96.0158 317.74 95.1998 316.332 95.1998C314.924 95.1998 314.108 96.0158 314.108 97.0718C314.108 98.1758 314.972 98.9918 316.332 99.0078Z" fill="white"/>
<path d="M389.657 105.424H388.121V97.1358H385.609V96.0318C387.049 95.9998 388.041 95.1998 388.281 94.0798H389.657V105.424ZM395.744 100.24C394.128 100.24 393.28 101.168 393.28 102.288C393.28 103.392 394.176 104.32 395.744 104.32C397.312 104.32 398.208 103.392 398.208 102.288C398.208 101.168 397.36 100.24 395.744 100.24ZM395.744 105.632C393.296 105.632 391.76 104.272 391.76 102.432C391.76 101.104 392.656 99.9838 394 99.6158C392.768 99.2478 391.984 98.1438 391.984 96.9758C391.984 95.1838 393.504 93.8718 395.744 93.8718C397.984 93.8718 399.504 95.1838 399.504 96.9758C399.504 98.1438 398.72 99.2478 397.472 99.6158C398.832 99.9838 399.728 101.104 399.728 102.432C399.728 104.272 398.192 105.632 395.744 105.632ZM395.744 99.0078C397.12 98.9918 397.968 98.1758 397.968 97.0718C397.968 96.0158 397.152 95.1998 395.744 95.1998C394.336 95.1998 393.52 96.0158 393.52 97.0718C393.52 98.1758 394.384 98.9918 395.744 99.0078ZM408.007 94.0798L402.519 105.424H401.063L406.551 94.0798H408.007ZM417.067 105.424H409.259C409.291 103.744 409.883 102.16 411.675 101.072L413.739 99.7758C414.843 99.0718 415.419 98.3518 415.419 97.3438C415.419 96.1918 414.587 95.2478 413.243 95.2478C411.755 95.2478 410.811 96.2238 410.811 97.6958C410.811 97.8718 410.827 98.0798 410.875 98.2878L409.387 98.2238C409.355 98.0478 409.323 97.7278 409.323 97.5198C409.323 95.5518 410.731 93.8718 413.195 93.8718C415.563 93.8718 416.955 95.4238 416.955 97.3118C416.955 98.7678 416.107 99.9038 414.779 100.736L412.443 102.176C411.787 102.592 411.291 103.248 411.131 103.984H417.067V105.424ZM418.536 102.272L419.96 101.92C420.088 103.216 421.064 104.256 422.536 104.256C424.024 104.256 425.048 103.248 425.048 101.824C425.048 100.256 423.976 99.3438 422.536 99.3438C421.576 99.3438 420.776 99.7758 420.28 100.416L418.856 99.8878L420.088 94.0798H426.072V95.5198H421.16L420.424 98.9918C420.984 98.3518 422.008 98.0478 422.84 98.0478C425.096 98.0478 426.6 99.4878 426.6 101.808C426.6 103.904 425.048 105.632 422.536 105.632C420.264 105.632 418.696 104.096 418.536 102.272Z" fill="white"/>
</svg>
