<svg width="62" height="62" viewBox="0 0 62 62" fill="none" xmlns="http://www.w3.org/2000/svg">
<path d="M49.6258 38.7818C46.81 38.601 43.9166 39.6343 41.7725 41.7785C39.8372 43.7194 38.7504 46.3484 38.7504 49.0893C38.7504 51.8302 39.8372 54.4593 41.7725 56.4001C43.1416 57.7693 44.8208 58.6735 46.6033 59.1126C47.585 59.371 48.6183 59.4485 49.6516 59.3968C52.1058 59.2935 54.5083 58.3118 56.3941 56.426C57.6555 55.1687 58.5687 53.6053 59.0442 51.889C59.5197 50.1727 59.5412 48.3623 59.1066 46.6351C58.6933 44.8526 57.7633 43.1735 56.3941 41.8043C54.5964 39.9844 52.1809 38.9058 49.6258 38.7818ZM54.87 49.0376C54.87 49.5801 54.6633 50.0451 54.3016 50.4068C53.94 50.7685 53.475 50.9751 52.9325 50.9751H51.0208V52.9901C51.0208 53.5326 50.8141 53.9976 50.4525 54.3593C50.0908 54.721 49.6258 54.9276 49.0833 54.9276C48.0241 54.9276 47.1458 54.0493 47.1458 52.9901V50.9751H45.2083C44.1491 50.9751 43.2708 50.0968 43.2708 49.0376C43.2708 47.9785 44.1491 47.1001 45.2083 47.1001H47.1458V45.266C47.1458 44.2068 48.0241 43.3285 49.0833 43.3285C50.1425 43.3285 51.0208 44.2068 51.0208 45.266V47.1001H52.9325C54.0175 47.1001 54.87 47.9785 54.87 49.0376ZM31.589 31.1816C30.5298 31.1816 29.6773 32.0341 29.6773 33.0933C29.6773 34.1525 30.5298 35.005 31.589 35.005C32.6481 35.005 33.5006 34.1525 33.5006 33.0933C33.5006 32.0341 32.6481 31.1816 31.589 31.1816ZM17.4633 33.7366C16.4041 33.7366 15.5516 34.5891 15.5516 35.6482C15.5516 36.7074 16.4041 37.5599 17.4633 37.5599C18.5225 37.5599 19.375 36.7074 19.375 35.6482C19.375 34.5891 18.5225 33.7366 17.4633 33.7366Z" fill="white"/>
<path d="M41.8242 5.16602H20.1759C19.4525 5.16602 18.755 5.19185 18.0834 5.29518C9.94585 6.04435 5.16669 11.4952 5.16669 20.1752V41.8235C5.16669 50.5035 9.94585 55.9544 18.0834 56.7035C18.755 56.8069 19.4525 56.8327 20.1759 56.8327H34.875C35.8825 56.8327 36.5284 55.696 36.1409 54.766C35.3917 52.9835 34.875 50.9169 34.875 49.0827C34.875 41.2552 41.2559 34.8744 49.0834 34.8744C51.0467 34.8744 52.9584 35.2619 54.715 36.0368C55.6709 36.4502 56.8334 35.8044 56.8334 34.771V20.1752C56.8334 10.7718 51.2275 5.16602 41.8242 5.16602ZM37.4067 20.7952V33.0919C37.4067 33.1177 37.3809 33.1435 37.3809 33.1952C37.3585 34.7158 36.7392 36.1667 35.6566 37.2347C34.574 38.3028 33.115 38.9025 31.5942 38.9044C28.3909 38.9044 25.8075 36.2952 25.8075 33.1177C25.8075 29.9144 28.4167 27.331 31.5942 27.331C32.2659 27.331 32.9117 27.4602 33.5317 27.6927V23.3268L23.2759 26.1168V35.6752C23.2759 35.701 23.25 35.7269 23.25 35.7527C23.2269 37.2707 22.6066 38.7185 21.5234 39.7823C20.4403 40.8461 18.9815 41.4403 17.4634 41.436C14.26 41.436 11.6767 38.8269 11.6767 35.6494C11.6835 34.1167 12.2953 32.6488 13.3791 31.5651C14.4628 30.4813 15.9307 29.8695 17.4634 29.8627C18.135 29.8627 18.7809 29.9918 19.375 30.2243V20.1235C19.375 17.721 20.8734 15.7835 23.1725 15.1635L30.8709 13.0452C33.2734 12.3993 34.7459 13.0452 35.5725 13.6652C36.7609 14.5693 37.355 16.0418 37.355 18.0052V20.7952H37.4067Z" fill="white"/>
</svg>
