<svg width="431" height="64" viewBox="0 0 431 64" fill="none" xmlns="http://www.w3.org/2000/svg">
<rect x="0.339966" y="0.280029" width="199" height="63" rx="31.5" fill="#F2F2F2"/>
<path d="M47.6693 47.4159C45.8601 49.2101 43.8848 48.9268 41.9833 48.0769C39.9711 47.2082 38.125 47.1704 36.0019 48.0769C33.3436 49.2479 31.9405 48.9079 30.3529 47.4159C21.3439 37.916 22.6731 23.4489 32.9005 22.9201C35.3927 23.0523 37.1281 24.3177 38.5865 24.431C40.7649 23.9778 42.851 22.6746 45.1771 22.8446C47.9647 23.0712 50.0693 24.2044 51.4538 26.2441C45.694 29.7759 47.0601 37.5383 52.34 39.7102C51.2877 42.5432 49.9216 45.3573 47.6509 47.4348L47.6693 47.4159ZM38.4019 22.8068C38.125 18.5951 41.4664 15.12 45.3063 14.78C45.8417 19.6527 40.9864 23.279 38.4019 22.8068Z" fill="#333333"/>
<path d="M69.297 15.4158H72.6124C75.5382 15.4158 77.2677 17.241 77.2677 20.3445C77.2677 23.4548 75.545 25.28 72.6124 25.28H69.297V15.4158ZM70.5275 16.5232V24.1726H72.5304C74.7657 24.1726 76.0099 22.8054 76.0099 20.3582C76.0099 17.8904 74.7726 16.5232 72.5304 16.5232H70.5275ZM81.5607 25.4031C79.5919 25.4031 78.2657 23.988 78.2657 21.7253C78.2657 19.4558 79.5919 18.0476 81.5607 18.0476C83.5226 18.0476 84.8488 19.4558 84.8488 21.7253C84.8488 23.988 83.5226 25.4031 81.5607 25.4031ZM81.5607 24.3572C82.8185 24.3572 83.6388 23.4001 83.6388 21.7253C83.6388 20.0505 82.8185 19.0935 81.5607 19.0935C80.3029 19.0935 79.4757 20.0505 79.4757 21.7253C79.4757 23.4001 80.3029 24.3572 81.5607 24.3572ZM95.0958 18.1707L93.1134 25.28H91.9034L90.297 19.7771H90.2697L88.67 25.28H87.4601L85.4708 18.1707H86.6534L88.0753 23.9539H88.1027L89.7091 18.1707H90.8575L92.4708 23.9539H92.4982L93.92 18.1707H95.0958ZM96.0734 25.28V18.1707H97.1945V19.3054H97.2218C97.6183 18.5398 98.3771 18.0476 99.4777 18.0476C101.036 18.0476 101.939 19.0525 101.939 20.6658V25.28H100.749V20.8777C100.749 19.7292 100.209 19.1003 99.1154 19.1003C97.9943 19.1003 97.2628 19.8933 97.2628 21.0964V25.28H96.0734ZM103.518 25.28V15.4158H104.707V25.28H103.518ZM109.26 25.4031C107.291 25.4031 105.965 23.988 105.965 21.7253C105.965 19.4558 107.291 18.0476 109.26 18.0476C111.222 18.0476 112.548 19.4558 112.548 21.7253C112.548 23.988 111.222 25.4031 109.26 25.4031ZM109.26 24.3572C110.518 24.3572 111.338 23.4001 111.338 21.7253C111.338 20.0505 110.518 19.0935 109.26 19.0935C108.002 19.0935 107.175 20.0505 107.175 21.7253C107.175 23.4001 108.002 24.3572 109.26 24.3572ZM116.096 24.3914C117.217 24.3914 118.078 23.6052 118.078 22.5798V21.9988L116.178 22.115C115.221 22.1765 114.674 22.6003 114.674 23.2703C114.674 23.947 115.241 24.3914 116.096 24.3914ZM115.829 25.4031C114.414 25.4031 113.464 24.5486 113.464 23.2703C113.464 22.0535 114.401 21.2878 116.041 21.1921L118.078 21.0759V20.4812C118.078 19.613 117.504 19.0935 116.52 19.0935C115.604 19.0935 115.029 19.5242 114.879 20.2214H113.731C113.813 18.991 114.865 18.0476 116.547 18.0476C118.215 18.0476 119.268 18.95 119.268 20.365V25.28H118.14V24.0564H118.112C117.689 24.8699 116.786 25.4031 115.829 25.4031ZM123.472 25.4031C121.66 25.4031 120.43 23.9539 120.43 21.7253C120.43 19.4968 121.653 18.0476 123.444 18.0476C124.463 18.0476 125.283 18.5466 125.707 19.3259H125.734V15.4158H126.924V25.28H125.789V24.0769H125.769C125.311 24.8972 124.497 25.4031 123.472 25.4031ZM123.697 19.0935C122.44 19.0935 121.647 20.1189 121.647 21.7253C121.647 23.3386 122.44 24.3572 123.697 24.3572C124.921 24.3572 125.741 23.3181 125.741 21.7253C125.741 20.1394 124.921 19.0935 123.697 19.0935ZM134.348 25.4031C132.379 25.4031 131.053 23.988 131.053 21.7253C131.053 19.4558 132.379 18.0476 134.348 18.0476C136.31 18.0476 137.636 19.4558 137.636 21.7253C137.636 23.988 136.31 25.4031 134.348 25.4031ZM134.348 24.3572C135.606 24.3572 136.426 23.4001 136.426 21.7253C136.426 20.0505 135.606 19.0935 134.348 19.0935C133.09 19.0935 132.263 20.0505 132.263 21.7253C132.263 23.4001 133.09 24.3572 134.348 24.3572ZM138.839 25.28V18.1707H139.96V19.3054H139.987C140.384 18.5398 141.143 18.0476 142.243 18.0476C143.802 18.0476 144.704 19.0525 144.704 20.6658V25.28H143.515V20.8777C143.515 19.7292 142.975 19.1003 141.881 19.1003C140.76 19.1003 140.028 19.8933 140.028 21.0964V25.28H138.839ZM149.476 16.4548H150.665V18.1707H152.046V19.1482H150.665V23.3728C150.665 24.0222 150.939 24.3162 151.547 24.3162C151.684 24.3162 151.957 24.2957 152.039 24.282V25.28C151.896 25.3142 151.568 25.3347 151.287 25.3347C149.982 25.3347 149.476 24.8015 149.476 23.4343V19.1482H148.416V18.1707H149.476V16.4548ZM153.379 25.28V15.4158H154.568V19.3054H154.596C154.992 18.5125 155.772 18.0476 156.852 18.0476C158.41 18.0476 159.354 19.1003 159.354 20.6863V25.28H158.164V20.905C158.164 19.7771 157.597 19.1003 156.483 19.1003C155.3 19.1003 154.568 19.907 154.568 21.1375V25.28H153.379ZM163.715 19.0798C162.601 19.0798 161.821 19.9343 161.746 21.1169H165.609C165.581 19.9275 164.836 19.0798 163.715 19.0798ZM165.581 23.2429H166.75C166.545 24.4871 165.342 25.4031 163.79 25.4031C161.753 25.4031 160.516 23.988 160.516 21.7527C160.516 19.5447 161.774 18.0476 163.735 18.0476C165.656 18.0476 166.839 19.4421 166.839 21.5955V22.0466H161.739V22.115C161.739 23.4753 162.539 24.3708 163.818 24.3708C164.72 24.3708 165.383 23.9128 165.581 23.2429Z" fill="#7F7F7F"/>
<path d="M78.7404 46.28L77.6661 42.8621H72.715L71.6407 46.28H68.6134L73.506 32.1882H76.9728L81.8751 46.28H78.7404ZM75.1564 34.8835L73.3497 40.655H77.0314L75.2247 34.8835H75.1564ZM89.1896 35.6453C91.8458 35.6453 93.4767 37.6667 93.4767 41.0457C93.4767 44.4148 91.8556 46.446 89.2384 46.446C87.715 46.446 86.5431 45.7039 85.9865 44.5222H85.9279V49.698H83.0763V35.8113H85.8888V37.6375H85.9474C86.5138 36.407 87.6759 35.6453 89.1896 35.6453ZM88.2325 44.1511C89.6583 44.1511 90.5568 42.95 90.5568 41.0457C90.5568 39.1511 89.6583 37.9304 88.2325 37.9304C86.8361 37.9304 85.9181 39.1707 85.9181 41.0457C85.9181 42.9402 86.8361 44.1511 88.2325 44.1511ZM101.065 35.6453C103.721 35.6453 105.352 37.6667 105.352 41.0457C105.352 44.4148 103.731 46.446 101.113 46.446C99.59 46.446 98.4181 45.7039 97.8615 44.5222H97.8029V49.698H94.9513V35.8113H97.7638V37.6375H97.8224C98.3888 36.407 99.5509 35.6453 101.065 35.6453ZM100.108 44.1511C101.533 44.1511 102.432 42.95 102.432 41.0457C102.432 39.1511 101.533 37.9304 100.108 37.9304C98.7111 37.9304 97.7931 39.1707 97.7931 41.0457C97.7931 42.9402 98.7111 44.1511 100.108 44.1511ZM106.895 46.28V32.1882H109.746V46.28H106.895ZM116.367 37.696C115.117 37.696 114.219 38.6433 114.121 39.9519H118.565C118.506 38.614 117.637 37.696 116.367 37.696ZM118.604 43.0769H121.221C120.908 45.1277 119.033 46.5046 116.445 46.5046C113.223 46.5046 111.289 44.4441 111.289 41.0945C111.289 37.7546 113.242 35.5867 116.338 35.5867C119.385 35.5867 121.309 37.6472 121.309 40.8308V41.7H114.092V41.8757C114.092 43.3699 115.039 44.3953 116.494 44.3953C117.539 44.3953 118.34 43.8777 118.604 43.0769ZM126.465 42.2664H129.307C129.443 43.4285 130.654 44.1902 132.217 44.1902C133.789 44.1902 134.863 43.4382 134.863 42.4031C134.863 41.4851 134.19 40.9773 132.49 40.5964L130.654 40.196C128.057 39.6394 126.777 38.321 126.777 36.2605C126.777 33.6628 129.024 31.9441 132.168 31.9441C135.449 31.9441 137.51 33.6335 137.559 36.1824H134.795C134.697 34.991 133.652 34.2683 132.178 34.2683C130.723 34.2683 129.746 34.9617 129.746 36.0066C129.746 36.8757 130.43 37.364 132.051 37.7351L133.76 38.0964C136.582 38.7019 137.813 39.9128 137.813 42.0613C137.813 44.7957 135.596 46.5242 132.1 46.5242C128.711 46.5242 126.553 44.9128 126.465 42.2664ZM140.147 33.3992H142.998V35.8113H144.932V37.9597H142.998V42.9695C142.998 43.7703 143.389 44.1511 144.229 44.1511C144.483 44.1511 144.746 44.1316 144.922 44.1023V46.2019C144.629 46.2703 144.141 46.3191 143.565 46.3191C141.104 46.3191 140.147 45.4988 140.147 43.4578V37.9597H138.672V35.8113H140.147V33.3992ZM151.143 46.5046C147.979 46.5046 145.957 44.4734 145.957 41.0359C145.957 37.6472 148.008 35.5867 151.143 35.5867C154.277 35.5867 156.328 37.6375 156.328 41.0359C156.328 44.4832 154.307 46.5046 151.143 46.5046ZM151.143 44.3269C152.539 44.3269 153.428 43.1453 153.428 41.0457C153.428 38.9656 152.529 37.7644 151.143 37.7644C149.756 37.7644 148.848 38.9656 148.848 41.0457C148.848 43.1453 149.736 44.3269 151.143 44.3269ZM157.803 46.28V35.8113H160.557V37.696H160.615C160.986 36.3679 161.875 35.6453 163.106 35.6453C163.438 35.6453 163.721 35.6941 163.916 35.7527V38.2625C163.682 38.1648 163.291 38.0964 162.881 38.0964C161.475 38.0964 160.654 38.9558 160.654 40.4304V46.28H157.803ZM169.434 37.696C168.184 37.696 167.285 38.6433 167.188 39.9519H171.631C171.572 38.614 170.703 37.696 169.434 37.696ZM171.67 43.0769H174.287C173.975 45.1277 172.1 46.5046 169.512 46.5046C166.289 46.5046 164.356 44.4441 164.356 41.0945C164.356 37.7546 166.309 35.5867 169.404 35.5867C172.451 35.5867 174.375 37.6472 174.375 40.8308V41.7H167.158V41.8757C167.158 43.3699 168.106 44.3953 169.561 44.3953C170.606 44.3953 171.406 43.8777 171.67 43.0769Z" fill="#333333"/>
<rect x="229.34" y="0.280029" width="201" height="63" rx="31.5" fill="#F2F2F2"/>
<g clip-path="url(#clip0_38_473)">
<path d="M266.416 31.0588L253.456 44.6577C253.601 45.1743 253.863 45.6507 254.221 46.0505C254.578 46.4503 255.022 46.763 255.519 46.9645C256.016 47.1661 256.552 47.2513 257.086 47.2135C257.621 47.1758 258.14 47.0162 258.603 46.7468L273.186 38.4289L266.416 31.0588Z" fill="#EA4335"/>
<path d="M279.521 28.7473L273.215 25.1298L266.117 31.3682L273.244 38.4094L279.502 34.8307C280.056 34.54 280.521 34.1029 280.845 33.5667C281.169 33.0305 281.34 32.4157 281.34 31.789C281.34 31.1622 281.169 30.5474 280.845 30.0113C280.521 29.4751 280.056 29.0379 279.502 28.7472L279.521 28.7473Z" fill="#FBBC04"/>
<path d="M253.456 18.8528C253.378 19.1429 253.339 19.4421 253.34 19.7426V43.7678C253.341 44.0682 253.38 44.3672 253.456 44.6577L266.86 31.407L253.456 18.8528Z" fill="#4285F4"/>
<path d="M266.513 31.7553L273.215 25.1299L258.652 16.7733C258.104 16.4519 257.481 16.2817 256.846 16.28C255.27 16.277 253.884 17.3244 253.456 18.8432L266.513 31.7553Z" fill="#34A853"/>
</g>
<path d="M306.746 21.1785C306.746 23.8513 305.167 25.4441 302.494 25.4441C299.671 25.4441 297.894 23.4685 297.894 20.3035C297.894 17.1931 299.664 15.2517 302.474 15.2517C304.668 15.2517 306.329 16.5505 306.671 18.5193H305.099C304.73 17.2957 303.766 16.5916 302.481 16.5916C300.594 16.5916 299.459 17.9724 299.459 20.2898C299.459 22.6482 300.628 24.1042 302.508 24.1042C304.108 24.1042 305.215 23.0789 305.235 21.5818V21.4109H302.686V20.1736H306.746V21.1785ZM314.505 23.9539V25.28H308.243V15.4158H314.505V16.7351H309.775V19.6199H314.252V20.8914H309.775V23.9539H314.505ZM320.056 25.28H318.525V16.7351H315.503V15.4158H323.07V16.7351H320.056V25.28ZM328.696 25.28H327.165V15.4158H328.696V25.28ZM334.493 25.28H332.962V16.7351H329.941V15.4158H337.508V16.7351H334.493V25.28ZM345.868 15.2517C348.705 15.2517 350.489 17.2136 350.489 20.3513C350.489 23.489 348.705 25.4441 345.868 25.4441C343.025 25.4441 341.247 23.489 341.247 20.3513C341.247 17.2136 343.025 15.2517 345.868 15.2517ZM345.868 16.5984C343.995 16.5984 342.813 18.0476 342.813 20.3513C342.813 22.6482 343.995 24.0974 345.868 24.0974C347.741 24.0974 348.917 22.6482 348.917 20.3513C348.917 18.0476 347.741 16.5984 345.868 16.5984ZM353.443 25.28H351.952V15.4158H353.34L358.453 22.6892H358.508V15.4158H359.998V25.28H358.617L353.504 18.0134H353.443V25.28Z" fill="#7F7F7F"/>
<path d="M311.109 40.3621C311.109 44.2 308.785 46.5242 304.859 46.5242C300.651 46.5242 298.072 43.7703 298.072 39.1902C298.072 34.6785 300.651 31.9441 304.791 31.9441C308.082 31.9441 310.563 33.8875 310.983 36.739H308.024C307.594 35.2644 306.393 34.3855 304.801 34.3855C302.477 34.3855 301.08 36.1531 301.08 39.1511C301.08 42.2078 302.565 44.073 304.908 44.073C306.832 44.073 308.17 42.8914 308.229 41.1433L308.238 40.9187H305.172V38.7703H311.109V40.3621ZM317.623 46.5046C314.459 46.5046 312.438 44.4734 312.438 41.0359C312.438 37.6472 314.488 35.5867 317.623 35.5867C320.758 35.5867 322.809 37.6375 322.809 41.0359C322.809 44.4832 320.787 46.5046 317.623 46.5046ZM317.623 44.3269C319.02 44.3269 319.908 43.1453 319.908 41.0457C319.908 38.9656 319.01 37.7644 317.623 37.7644C316.236 37.7644 315.328 38.9656 315.328 41.0457C315.328 43.1453 316.217 44.3269 317.623 44.3269ZM329.088 46.5046C325.924 46.5046 323.902 44.4734 323.902 41.0359C323.902 37.6472 325.953 35.5867 329.088 35.5867C332.223 35.5867 334.274 37.6375 334.274 41.0359C334.274 44.4832 332.252 46.5046 329.088 46.5046ZM329.088 44.3269C330.484 44.3269 331.373 43.1453 331.373 41.0457C331.373 38.9656 330.475 37.7644 329.088 37.7644C327.701 37.7644 326.793 38.9656 326.793 41.0457C326.793 43.1453 327.682 44.3269 329.088 44.3269ZM340.582 44.0535C342.008 44.0535 342.916 42.9207 342.916 41.0261C342.916 39.1414 342.008 37.9304 340.582 37.9304C339.176 37.9304 338.287 39.1218 338.287 41.0261C338.287 42.9402 339.166 44.0535 340.582 44.0535ZM340.533 50.2253C337.779 50.2253 335.914 48.8875 335.69 47.0222H338.483C338.707 47.7449 339.527 48.2429 340.611 48.2429C342.086 48.2429 342.906 47.4226 342.906 46.2117V44.3757H342.848C342.359 45.489 341.129 46.2507 339.615 46.2507C337.057 46.2507 335.367 44.2781 335.367 41.0066C335.367 37.6863 337.008 35.6453 339.664 35.6453C341.168 35.6453 342.35 36.4363 342.897 37.6375H342.945V35.8113H345.758V46.1335C345.758 48.6335 343.668 50.2253 340.533 50.2253ZM347.692 46.28V32.1882H350.543V46.28H347.692ZM357.164 37.696C355.914 37.696 355.016 38.6433 354.918 39.9519H359.361C359.303 38.614 358.434 37.696 357.164 37.696ZM359.401 43.0769H362.018C361.705 45.1277 359.83 46.5046 357.242 46.5046C354.02 46.5046 352.086 44.4441 352.086 41.0945C352.086 37.7546 354.039 35.5867 357.135 35.5867C360.182 35.5867 362.106 37.6472 362.106 40.8308V41.7H354.889V41.8757C354.889 43.3699 355.836 44.3953 357.291 44.3953C358.336 44.3953 359.137 43.8777 359.401 43.0769ZM367.789 32.1882H373.522C376.412 32.1882 378.404 34.1121 378.404 37.0125C378.404 39.9031 376.344 41.8367 373.375 41.8367H370.738V46.28H367.789V32.1882ZM370.738 34.5222V39.532H372.731C374.42 39.532 375.406 38.6335 375.406 37.0222C375.406 35.4207 374.43 34.5222 372.74 34.5222H370.738ZM379.977 46.28V32.1882H382.828V46.28H379.977ZM388.795 44.3855C390.035 44.3855 391.061 43.575 391.061 42.4421V41.6804L388.854 41.8171C387.789 41.8953 387.184 42.3738 387.184 43.116C387.184 43.8972 387.828 44.3855 388.795 44.3855ZM387.858 46.446C385.865 46.446 384.352 45.157 384.352 43.2722C384.352 41.3679 385.817 40.2644 388.424 40.1082L391.061 39.9519V39.2585C391.061 38.282 390.377 37.7156 389.303 37.7156C388.238 37.7156 387.565 38.2429 387.428 39.0144H384.82C384.928 36.9832 386.656 35.5867 389.43 35.5867C392.115 35.5867 393.863 36.9734 393.863 39.0828V46.28H391.109V44.6785H391.051C390.465 45.7917 389.166 46.446 387.858 46.446ZM396.988 50.157C396.891 50.157 396.002 50.1472 395.914 50.1277V47.9304C396.002 47.95 396.52 47.95 396.627 47.95C397.672 47.95 398.19 47.6179 398.385 46.7878C398.385 46.7488 398.492 46.3289 398.473 46.2898L394.83 35.8113H397.965L400.192 43.9949H400.24L402.467 35.8113H405.475L401.871 46.5144C400.973 49.2 399.664 50.157 396.988 50.157Z" fill="#333333"/>
<defs>
<clipPath id="clip0_38_473">
<rect width="28" height="31" fill="white" transform="translate(253.34 16.28)"/>
</clipPath>
</defs>
</svg>
