<svg width="71" height="50" viewBox="0 0 71 50" fill="none" xmlns="http://www.w3.org/2000/svg">
<rect width="5.16397" height="21.9469" rx="2.58198" transform="matrix(1 0 0 -1 0.0511475 22.8921)" fill="#FE718E"/>
<rect width="5.16397" height="14.8464" rx="2.58198" transform="matrix(1 0 0 -1 21.9979 15.7915)" fill="#FE718E"/>
<rect width="5.16397" height="31.9703" rx="2.58198" transform="matrix(1 0 0 -1 43.2993 32.9155)" fill="#FE718E"/>
<rect width="5.16397" height="27.4031" rx="2.58198" transform="matrix(1 0 0 -1 65.2463 28.3477)" fill="#FE718E"/>
<rect width="5.16397" height="26.4653" rx="2.58198" transform="matrix(1 0 0 -1 54.2728 49.3574)" fill="#FBBA6D"/>
<rect width="5.80947" height="21.9225" rx="2.90473" transform="matrix(1 0 0 -1 32.3259 22.8677)" fill="#FBBA6D"/>
<rect width="5.16397" height="30.3383" rx="2.58198" transform="matrix(1 0 0 -1 11.0245 31.2832)" fill="#FBBA6D"/>
</svg>
